<svg width="492" height="318" viewBox="0 0 492 318" fill="none" xmlns="http://www.w3.org/2000/svg">
<path d="M141.609 67.9512V93H126.961V21.9062H154.695C160.034 21.9062 164.721 22.8828 168.758 24.8359C172.827 26.7891 175.952 29.5723 178.133 33.1855C180.314 36.7663 181.404 40.8516 181.404 45.4414C181.404 52.4076 179.012 57.9089 174.227 61.9453C169.474 65.9492 162.882 67.9512 154.451 67.9512H141.609ZM141.609 56.0859H154.695C158.569 56.0859 161.515 55.1745 163.533 53.3516C165.584 51.5286 166.609 48.9245 166.609 45.5391C166.609 42.056 165.584 39.2402 163.533 37.0918C161.482 34.9434 158.65 33.8366 155.037 33.7715H141.609V56.0859ZM222.225 87.6289C218.742 91.8607 213.924 93.9766 207.771 93.9766C202.107 93.9766 197.778 92.349 194.783 89.0938C191.821 85.8385 190.307 81.0697 190.242 74.7871V40.168H204.354V74.2988C204.354 79.8001 206.86 82.5508 211.873 82.5508C216.658 82.5508 219.946 80.8906 221.736 77.5703V40.168H235.896V93H222.615L222.225 87.6289ZM276.229 53.4004C274.308 53.14 272.615 53.0098 271.15 53.0098C265.812 53.0098 262.312 54.8164 260.652 58.4297V93H246.541V40.168H259.871L260.262 46.4668C263.094 41.6165 267.016 39.1914 272.029 39.1914C273.592 39.1914 275.057 39.403 276.424 39.8262L276.229 53.4004ZM306.404 93.9766C298.657 93.9766 292.342 91.6003 287.459 86.8477C282.609 82.0951 280.184 75.7637 280.184 67.8535V66.4863C280.184 61.1803 281.209 56.444 283.26 52.2773C285.311 48.0781 288.208 44.8555 291.951 42.6094C295.727 40.3307 300.024 39.1914 304.842 39.1914C312.068 39.1914 317.749 41.4701 321.883 46.0273C326.049 50.5846 328.133 57.0462 328.133 65.4121V71.1738H294.49C294.946 74.6243 296.313 77.3913 298.592 79.4746C300.903 81.5579 303.816 82.5996 307.332 82.5996C312.768 82.5996 317.016 80.6302 320.076 76.6914L327.01 84.4551C324.894 87.4499 322.029 89.7936 318.416 91.4863C314.803 93.1465 310.799 93.9766 306.404 93.9766ZM304.793 50.6172C301.993 50.6172 299.715 51.5612 297.957 53.4492C296.232 55.3372 295.125 58.0391 294.637 61.5547H314.266V60.4316C314.201 57.3066 313.354 54.8978 311.727 53.2051C310.099 51.4798 307.788 50.6172 304.793 50.6172ZM335.408 66.1445C335.408 58.0391 337.329 51.5286 341.17 46.6133C345.011 41.6654 350.04 39.1914 356.258 39.1914C362.443 39.1914 367.342 41.3073 370.955 45.5391V18H379.988V93H371.688L371.248 87.3359C367.635 91.763 362.605 93.9766 356.16 93.9766C350.04 93.9766 345.044 91.4701 341.17 86.457C337.329 81.444 335.408 74.901 335.408 66.8281V66.1445ZM344.441 67.1699C344.441 73.1595 345.678 77.847 348.152 81.2324C350.626 84.6178 354.044 86.3105 358.406 86.3105C364.135 86.3105 368.318 83.7389 370.955 78.5957V54.3281C368.253 49.3477 364.103 46.8574 358.504 46.8574C354.077 46.8574 350.626 48.5664 348.152 51.9844C345.678 55.4023 344.441 60.4642 344.441 67.1699ZM426.668 87.7754C423.152 91.9095 417.993 93.9766 411.189 93.9766C405.558 93.9766 401.261 92.349 398.299 89.0938C395.369 85.806 393.888 80.9557 393.855 74.543V40.168H402.889V74.2988C402.889 82.3066 406.144 86.3105 412.654 86.3105C419.555 86.3105 424.145 83.7389 426.424 78.5957V40.168H435.457V93H426.863L426.668 87.7754ZM466.951 59.4551L478.67 40.168H489.217L471.932 66.291L489.754 93H479.305L467.098 73.2246L454.891 93H444.393L462.215 66.291L444.93 40.168H455.379L466.951 59.4551Z" fill="black"/>
<path d="M134.914 138.484V249.666C134.839 265.089 129.973 277.705 120.314 287.513C110.731 297.321 97.7038 302.824 81.2324 304.021L75.5049 304.246C57.611 304.246 43.3483 299.417 32.7168 289.759C22.0853 280.101 16.6947 266.811 16.5449 249.891V138.484H37.8828V249.217C37.8828 261.046 41.1396 270.255 47.6533 276.844C54.167 283.357 63.4508 286.614 75.5049 286.614C87.7087 286.614 97.0299 283.357 103.469 276.844C109.982 270.33 113.239 261.159 113.239 249.329V138.484H134.914ZM192.077 302H170.515V138.484H192.077V302ZM273.161 225.97L253.171 246.746V302H231.608V138.484H253.171V219.344L325.832 138.484H351.887L287.536 210.696L356.94 302H331.11L273.161 225.97ZM395.124 302H374.348V180.486H395.124V302ZM372.663 148.255C372.663 144.886 373.674 142.041 375.695 139.72C377.792 137.399 380.861 136.238 384.904 136.238C388.947 136.238 392.017 137.399 394.113 139.72C396.21 142.041 397.258 144.886 397.258 148.255C397.258 151.624 396.21 154.432 394.113 156.678C392.017 158.924 388.947 160.047 384.904 160.047C380.861 160.047 377.792 158.924 375.695 156.678C373.674 154.432 372.663 151.624 372.663 148.255ZM456.667 151.062V180.486H479.353V196.546H456.667V271.902C456.667 276.769 457.678 280.438 459.699 282.908C461.721 285.304 465.165 286.502 470.031 286.502C472.427 286.502 475.721 286.053 479.914 285.154V302C474.449 303.497 469.133 304.246 463.967 304.246C454.683 304.246 447.683 301.438 442.966 295.823C438.249 290.208 435.891 282.234 435.891 271.902V196.546H413.767V180.486H435.891V151.062H456.667Z" fill="black"/>
<path fill-rule="evenodd" clip-rule="evenodd" d="M106 68C106 90.0914 88.0914 108 66 108V98C82.5685 98 96 84.5685 96 68C96 51.4315 82.5685 38 66 38V28C88.0914 28 106 45.9086 106 68Z" fill="black"/>
<path fill-rule="evenodd" clip-rule="evenodd" d="M0 48C0 25.9086 17.9086 8 40 8V18C23.4315 18 10 31.4315 10 48C10 64.5685 23.4315 78 40 78V88C17.9086 88 0 70.0914 0 48Z" fill="black"/>
<path d="M43 78H53C58.5228 78 63 82.4772 63 88V108H53C47.4772 108 43 103.523 43 98V78Z" fill="black"/>
<path d="M43 8H53C58.5228 8 63 12.4772 63 18V38H53C47.4772 38 43 33.5228 43 28V8Z" fill="black"/>
</svg>
