<svg width="881" height="222" viewBox="0 0 881 222" fill="none" xmlns="http://www.w3.org/2000/svg">
<rect width="881" height="222" fill="white"/>
<path d="M179.033 123.658H160.918V112.232H179.033C181.833 112.232 184.111 111.777 185.869 110.865C187.627 109.921 188.913 108.619 189.727 106.959C190.54 105.299 190.947 103.427 190.947 101.344C190.947 99.2279 190.54 97.2585 189.727 95.4355C188.913 93.6126 187.627 92.1478 185.869 91.041C184.111 89.9342 181.833 89.3809 179.033 89.3809H165.996V149H151.348V77.9062H179.033C184.6 77.9062 189.368 78.9154 193.34 80.9336C197.344 82.9193 200.404 85.6699 202.52 89.1855C204.635 92.7012 205.693 96.7214 205.693 101.246C205.693 105.836 204.635 109.807 202.52 113.16C200.404 116.513 197.344 119.101 193.34 120.924C189.368 122.747 184.6 123.658 179.033 123.658ZM246.172 136.354V96.168H260.234V149H247.002L246.172 136.354ZM247.734 125.514L251.885 125.416C251.885 128.932 251.478 132.203 250.664 135.23C249.85 138.225 248.63 140.829 247.002 143.043C245.374 145.224 243.324 146.933 240.85 148.17C238.376 149.374 235.462 149.977 232.109 149.977C229.538 149.977 227.161 149.618 224.98 148.902C222.832 148.154 220.977 146.998 219.414 145.436C217.884 143.84 216.68 141.806 215.801 139.332C214.954 136.826 214.531 133.814 214.531 130.299V96.168H228.594V130.396C228.594 131.959 228.773 133.277 229.131 134.352C229.521 135.426 230.059 136.305 230.742 136.988C231.426 137.672 232.223 138.16 233.135 138.453C234.079 138.746 235.12 138.893 236.26 138.893C239.157 138.893 241.436 138.307 243.096 137.135C244.788 135.963 245.977 134.368 246.66 132.35C247.376 130.299 247.734 128.02 247.734 125.514ZM285.039 107.691V149H270.977V96.168H284.209L285.039 107.691ZM300.957 95.8262L300.713 108.863C300.029 108.766 299.199 108.684 298.223 108.619C297.279 108.521 296.416 108.473 295.635 108.473C293.649 108.473 291.924 108.733 290.459 109.254C289.027 109.742 287.822 110.475 286.846 111.451C285.902 112.428 285.186 113.616 284.697 115.016C284.242 116.415 283.981 118.01 283.916 119.801L281.084 118.922C281.084 115.504 281.426 112.363 282.109 109.498C282.793 106.601 283.786 104.078 285.088 101.93C286.423 99.7812 288.05 98.1211 289.971 96.9492C291.891 95.7773 294.089 95.1914 296.562 95.1914C297.344 95.1914 298.141 95.2565 298.955 95.3867C299.769 95.4844 300.436 95.6309 300.957 95.8262ZM330.938 149.977C326.836 149.977 323.158 149.326 319.902 148.023C316.647 146.689 313.88 144.85 311.602 142.506C309.355 140.162 307.63 137.444 306.426 134.352C305.221 131.227 304.619 127.906 304.619 124.391V122.438C304.619 118.434 305.189 114.771 306.328 111.451C307.467 108.131 309.095 105.25 311.211 102.809C313.359 100.367 315.964 98.4954 319.023 97.1934C322.083 95.8587 325.534 95.1914 329.375 95.1914C333.118 95.1914 336.439 95.8099 339.336 97.0469C342.233 98.2839 344.658 100.042 346.611 102.32C348.597 104.599 350.094 107.333 351.104 110.523C352.113 113.681 352.617 117.197 352.617 121.07V126.93H310.625V117.555H338.799V116.48C338.799 114.527 338.441 112.786 337.725 111.256C337.041 109.693 335.999 108.456 334.6 107.545C333.2 106.633 331.41 106.178 329.229 106.178C327.373 106.178 325.778 106.585 324.443 107.398C323.109 108.212 322.018 109.352 321.172 110.816C320.358 112.281 319.74 114.007 319.316 115.992C318.926 117.945 318.73 120.094 318.73 122.438V124.391C318.73 126.507 319.023 128.46 319.609 130.25C320.228 132.04 321.09 133.587 322.197 134.889C323.337 136.191 324.704 137.2 326.299 137.916C327.926 138.632 329.766 138.99 331.816 138.99C334.355 138.99 336.715 138.502 338.896 137.525C341.11 136.516 343.014 135.003 344.609 132.984L351.445 140.406C350.339 142.001 348.825 143.531 346.904 144.996C345.016 146.461 342.738 147.665 340.068 148.609C337.399 149.521 334.355 149.977 330.938 149.977ZM395.342 138.746V74H404.424V149H396.123L395.342 138.746ZM359.795 123.17V122.145C359.795 118.108 360.283 114.446 361.26 111.158C362.269 107.838 363.685 104.99 365.508 102.613C367.363 100.237 369.561 98.4141 372.1 97.1445C374.671 95.8424 377.536 95.1914 380.693 95.1914C384.014 95.1914 386.911 95.7773 389.385 96.9492C391.891 98.0885 394.007 99.765 395.732 101.979C397.49 104.16 398.874 106.796 399.883 109.889C400.892 112.981 401.592 116.48 401.982 120.387V124.879C401.624 128.753 400.924 132.236 399.883 135.328C398.874 138.421 397.49 141.057 395.732 143.238C394.007 145.419 391.891 147.096 389.385 148.268C386.878 149.407 383.949 149.977 380.596 149.977C377.503 149.977 374.671 149.309 372.1 147.975C369.561 146.64 367.363 144.768 365.508 142.359C363.685 139.951 362.269 137.118 361.26 133.863C360.283 130.576 359.795 127.011 359.795 123.17ZM368.877 122.145V123.17C368.877 125.807 369.137 128.281 369.658 130.592C370.212 132.903 371.058 134.938 372.197 136.695C373.337 138.453 374.785 139.837 376.543 140.846C378.301 141.822 380.4 142.311 382.842 142.311C385.837 142.311 388.294 141.676 390.215 140.406C392.168 139.137 393.73 137.46 394.902 135.377C396.074 133.294 396.986 131.031 397.637 128.59V116.822C397.246 115.032 396.676 113.307 395.928 111.646C395.212 109.954 394.268 108.456 393.096 107.154C391.956 105.82 390.54 104.762 388.848 103.98C387.188 103.199 385.218 102.809 382.939 102.809C380.465 102.809 378.333 103.329 376.543 104.371C374.785 105.38 373.337 106.78 372.197 108.57C371.058 110.328 370.212 112.379 369.658 114.723C369.137 117.034 368.877 119.508 368.877 122.145ZM450.811 136.793V96.168H459.893V149H451.25L450.811 136.793ZM452.52 125.66L456.279 125.562C456.279 129.078 455.905 132.333 455.156 135.328C454.44 138.29 453.268 140.862 451.641 143.043C450.013 145.224 447.881 146.933 445.244 148.17C442.607 149.374 439.401 149.977 435.625 149.977C433.053 149.977 430.693 149.602 428.545 148.854C426.429 148.105 424.606 146.949 423.076 145.387C421.546 143.824 420.358 141.79 419.512 139.283C418.698 136.777 418.291 133.766 418.291 130.25V96.168H427.324V130.348C427.324 132.724 427.585 134.693 428.105 136.256C428.659 137.786 429.391 139.007 430.303 139.918C431.247 140.797 432.288 141.415 433.428 141.773C434.6 142.132 435.804 142.311 437.041 142.311C440.882 142.311 443.926 141.578 446.172 140.113C448.418 138.616 450.029 136.614 451.006 134.107C452.015 131.568 452.52 128.753 452.52 125.66ZM479.766 96.168L491.338 115.406L503.057 96.168H513.652L496.367 122.242L514.189 149H503.74L491.533 129.176L479.326 149H468.828L486.602 122.242L469.365 96.168H479.766ZM542.07 115.064V122.486H518.242V115.064H542.07ZM590.166 131.031C590.166 129.371 589.906 127.906 589.385 126.637C588.896 125.335 588.018 124.163 586.748 123.121C585.511 122.079 583.786 121.087 581.572 120.143C579.391 119.199 576.624 118.238 573.271 117.262C569.756 116.22 566.582 115.064 563.75 113.795C560.918 112.493 558.493 111.012 556.475 109.352C554.456 107.691 552.91 105.787 551.836 103.639C550.762 101.49 550.225 99.0326 550.225 96.2656C550.225 93.4987 550.794 90.9434 551.934 88.5996C553.073 86.2559 554.701 84.2214 556.816 82.4961C558.965 80.7383 561.52 79.3711 564.482 78.3945C567.445 77.418 570.749 76.9297 574.395 76.9297C579.733 76.9297 584.258 77.9551 587.969 80.0059C591.712 82.0241 594.561 84.6771 596.514 87.9648C598.467 91.2201 599.443 94.7031 599.443 98.4141H590.068C590.068 95.7448 589.499 93.3848 588.359 91.334C587.22 89.2507 585.495 87.623 583.184 86.4512C580.872 85.2467 577.943 84.6445 574.395 84.6445C571.042 84.6445 568.275 85.1491 566.094 86.1582C563.913 87.1673 562.285 88.5345 561.211 90.2598C560.169 91.985 559.648 93.9544 559.648 96.168C559.648 97.6654 559.958 99.0326 560.576 100.27C561.227 101.474 562.22 102.597 563.555 103.639C564.922 104.68 566.647 105.641 568.73 106.52C570.846 107.398 573.369 108.245 576.299 109.059C580.335 110.198 583.818 111.467 586.748 112.867C589.678 114.267 592.087 115.846 593.975 117.604C595.895 119.329 597.311 121.298 598.223 123.512C599.167 125.693 599.639 128.167 599.639 130.934C599.639 133.831 599.053 136.451 597.881 138.795C596.709 141.139 595.033 143.141 592.852 144.801C590.671 146.461 588.05 147.747 584.99 148.658C581.963 149.537 578.577 149.977 574.834 149.977C571.546 149.977 568.307 149.521 565.117 148.609C561.96 147.698 559.079 146.331 556.475 144.508C553.903 142.685 551.836 140.439 550.273 137.77C548.743 135.068 547.979 131.943 547.979 128.395H557.354C557.354 130.836 557.826 132.936 558.77 134.693C559.714 136.419 560.999 137.851 562.627 138.99C564.287 140.13 566.159 140.976 568.242 141.529C570.358 142.05 572.555 142.311 574.834 142.311C578.122 142.311 580.905 141.855 583.184 140.943C585.462 140.032 587.188 138.73 588.359 137.037C589.564 135.344 590.166 133.342 590.166 131.031ZM623.662 139.625L637.236 96.168H643.193L642.021 104.811L628.203 149H622.393L623.662 139.625ZM614.531 96.168L626.104 140.113L626.934 149H620.83L605.498 96.168H614.531ZM656.182 139.771L667.217 96.168H676.201L660.869 149H654.814L656.182 139.771ZM644.512 96.168L657.793 138.893L659.307 149H653.545L639.336 104.713L638.164 96.168H644.512ZM695.293 96.168V149H686.211V96.168H695.293ZM685.527 82.1543C685.527 80.6895 685.967 79.4525 686.846 78.4434C687.757 77.4342 689.092 76.9297 690.85 76.9297C692.575 76.9297 693.893 77.4342 694.805 78.4434C695.749 79.4525 696.221 80.6895 696.221 82.1543C696.221 83.554 695.749 84.7585 694.805 85.7676C693.893 86.7441 692.575 87.2324 690.85 87.2324C689.092 87.2324 687.757 86.7441 686.846 85.7676C685.967 84.7585 685.527 83.554 685.527 82.1543ZM723.271 149H714.238V90.6016C714.238 86.793 714.922 83.5866 716.289 80.9824C717.689 78.3457 719.691 76.36 722.295 75.0254C724.899 73.6582 727.992 72.9746 731.572 72.9746C732.614 72.9746 733.656 73.0397 734.697 73.1699C735.771 73.3001 736.813 73.4954 737.822 73.7559L737.334 81.1289C736.65 80.9661 735.869 80.8522 734.99 80.7871C734.144 80.722 733.298 80.6895 732.451 80.6895C730.531 80.6895 728.87 81.0801 727.471 81.8613C726.104 82.61 725.062 83.7168 724.346 85.1816C723.63 86.6465 723.271 88.4531 723.271 90.6016V149ZM734.502 96.168V103.102H705.889V96.168H734.502ZM766.68 96.168V103.102H738.115V96.168H766.68ZM747.783 83.3262H756.816V135.914C756.816 137.704 757.093 139.055 757.646 139.967C758.2 140.878 758.916 141.48 759.795 141.773C760.674 142.066 761.618 142.213 762.627 142.213C763.376 142.213 764.157 142.148 764.971 142.018C765.817 141.855 766.452 141.725 766.875 141.627L766.924 149C766.208 149.228 765.264 149.439 764.092 149.635C762.952 149.863 761.569 149.977 759.941 149.977C757.728 149.977 755.693 149.537 753.838 148.658C751.982 147.779 750.501 146.314 749.395 144.264C748.32 142.18 747.783 139.381 747.783 135.865V83.3262ZM819.316 77.9062H828.691V126.002C828.691 131.34 827.503 135.784 825.127 139.332C822.751 142.88 819.593 145.549 815.654 147.34C811.748 149.098 807.5 149.977 802.91 149.977C798.092 149.977 793.73 149.098 789.824 147.34C785.951 145.549 782.874 142.88 780.596 139.332C778.35 135.784 777.227 131.34 777.227 126.002V77.9062H786.553V126.002C786.553 129.713 787.236 132.773 788.604 135.182C789.971 137.59 791.875 139.381 794.316 140.553C796.79 141.725 799.655 142.311 802.91 142.311C806.198 142.311 809.062 141.725 811.504 140.553C813.978 139.381 815.898 137.59 817.266 135.182C818.633 132.773 819.316 129.713 819.316 126.002V77.9062ZM853.594 77.9062V149H844.17V77.9062H853.594Z" fill="black"/>
<path fill-rule="evenodd" clip-rule="evenodd" d="M131 125C131 147.091 113.091 165 91 165V155C107.569 155 121 141.569 121 125C121 108.431 107.569 95 91 95V85C113.091 85 131 102.909 131 125Z" fill="black"/>
<path fill-rule="evenodd" clip-rule="evenodd" d="M25 105C25 82.9086 42.9086 65 65 65V75C48.4315 75 35 88.4315 35 105C35 121.569 48.4315 135 65 135V145C42.9086 145 25 127.091 25 105Z" fill="black"/>
<path d="M68 135H78C83.5228 135 88 139.477 88 145V165H78C72.4772 165 68 160.523 68 155V135Z" fill="black"/>
<path d="M68 65H78C83.5228 65 88 69.4772 88 75V95H78C72.4772 95 68 90.5228 68 85V65Z" fill="black"/>
</svg>
