<svg width="492" height="118" viewBox="0 0 492 118" fill="none" xmlns="http://www.w3.org/2000/svg">
<path d="M140.996 67.9512V93H126.348V21.9062H154.082C159.421 21.9062 164.108 22.8828 168.145 24.8359C172.214 26.7891 175.339 29.5723 177.52 33.1855C179.701 36.7663 180.791 40.8516 180.791 45.4414C180.791 52.4076 178.398 57.9089 173.613 61.9453C168.861 65.9492 162.269 67.9512 153.838 67.9512H140.996ZM140.996 56.0859H154.082C157.956 56.0859 160.902 55.1745 162.92 53.3516C164.971 51.5286 165.996 48.9245 165.996 45.5391C165.996 42.056 164.971 39.2402 162.92 37.0918C160.869 34.9434 158.037 33.8366 154.424 33.7715H140.996V56.0859ZM221.611 87.6289C218.128 91.8607 213.311 93.9766 207.158 93.9766C201.494 93.9766 197.165 92.349 194.17 89.0938C191.208 85.8385 189.694 81.0697 189.629 74.7871V40.168H203.74V74.2988C203.74 79.8001 206.247 82.5508 211.26 82.5508C216.045 82.5508 219.333 80.8906 221.123 77.5703V40.168H235.283V93H222.002L221.611 87.6289ZM275.615 53.4004C273.695 53.14 272.002 53.0098 270.537 53.0098C265.199 53.0098 261.699 54.8164 260.039 58.4297V93H245.928V40.168H259.258L259.648 46.4668C262.48 41.6165 266.403 39.1914 271.416 39.1914C272.979 39.1914 274.443 39.403 275.811 39.8262L275.615 53.4004ZM305.791 93.9766C298.044 93.9766 291.729 91.6003 286.846 86.8477C281.995 82.0951 279.57 75.7637 279.57 67.8535V66.4863C279.57 61.1803 280.596 56.444 282.646 52.2773C284.697 48.0781 287.594 44.8555 291.338 42.6094C295.114 40.3307 299.411 39.1914 304.229 39.1914C311.455 39.1914 317.135 41.4701 321.27 46.0273C325.436 50.5846 327.52 57.0462 327.52 65.4121V71.1738H293.877C294.333 74.6243 295.7 77.3913 297.979 79.4746C300.29 81.5579 303.203 82.5996 306.719 82.5996C312.155 82.5996 316.403 80.6302 319.463 76.6914L326.396 84.4551C324.281 87.4499 321.416 89.7936 317.803 91.4863C314.189 93.1465 310.186 93.9766 305.791 93.9766ZM304.18 50.6172C301.38 50.6172 299.102 51.5612 297.344 53.4492C295.618 55.3372 294.512 58.0391 294.023 61.5547H313.652V60.4316C313.587 57.3066 312.741 54.8978 311.113 53.2051C309.486 51.4798 307.174 50.6172 304.18 50.6172ZM334.795 66.1445C334.795 58.0391 336.715 51.5286 340.557 46.6133C344.398 41.6654 349.427 39.1914 355.645 39.1914C361.829 39.1914 366.729 41.3073 370.342 45.5391V18H379.375V93H371.074L370.635 87.3359C367.021 91.763 361.992 93.9766 355.547 93.9766C349.427 93.9766 344.43 91.4701 340.557 86.457C336.715 81.444 334.795 74.901 334.795 66.8281V66.1445ZM343.828 67.1699C343.828 73.1595 345.065 77.847 347.539 81.2324C350.013 84.6178 353.431 86.3105 357.793 86.3105C363.522 86.3105 367.705 83.7389 370.342 78.5957V54.3281C367.64 49.3477 363.49 46.8574 357.891 46.8574C353.464 46.8574 350.013 48.5664 347.539 51.9844C345.065 55.4023 343.828 60.4642 343.828 67.1699ZM426.055 87.7754C422.539 91.9095 417.38 93.9766 410.576 93.9766C404.945 93.9766 400.648 92.349 397.686 89.0938C394.756 85.806 393.275 80.9557 393.242 74.543V40.168H402.275V74.2988C402.275 82.3066 405.531 86.3105 412.041 86.3105C418.942 86.3105 423.532 83.7389 425.811 78.5957V40.168H434.844V93H426.25L426.055 87.7754ZM466.338 59.4551L478.057 40.168H488.604L471.318 66.291L489.141 93H478.691L466.484 73.2246L454.277 93H443.779L461.602 66.291L444.316 40.168H454.766L466.338 59.4551Z" fill="black"/>
<path fill-rule="evenodd" clip-rule="evenodd" d="M106 69C106 91.0914 88.0914 109 66 109V99C82.5685 99 96 85.5685 96 69C96 52.4315 82.5685 39 66 39V29C88.0914 29 106 46.9086 106 69Z" fill="black"/>
<path fill-rule="evenodd" clip-rule="evenodd" d="M0 49C0 26.9086 17.9086 9 40 9V19C23.4315 19 10 32.4315 10 49C10 65.5685 23.4315 79 40 79V89C17.9086 89 0 71.0914 0 49Z" fill="black"/>
<path d="M43 79H53C58.5228 79 63 83.4772 63 89V109H53C47.4772 109 43 104.523 43 99V79Z" fill="black"/>
<path d="M43 9H53C58.5228 9 63 13.4772 63 19V39H53C47.4772 39 43 34.5228 43 29V9Z" fill="black"/>
</svg>
