<svg width="754" height="118" viewBox="0 0 754 118" fill="none" xmlns="http://www.w3.org/2000/svg">
<path d="M140.996 67.9512V93H126.348V21.9062H154.082C159.421 21.9062 164.108 22.8828 168.145 24.8359C172.214 26.7891 175.339 29.5723 177.52 33.1855C179.701 36.7663 180.791 40.8516 180.791 45.4414C180.791 52.4076 178.398 57.9089 173.613 61.9453C168.861 65.9492 162.269 67.9512 153.838 67.9512H140.996ZM140.996 56.0859H154.082C157.956 56.0859 160.902 55.1745 162.92 53.3516C164.971 51.5286 165.996 48.9245 165.996 45.5391C165.996 42.056 164.971 39.2402 162.92 37.0918C160.869 34.9434 158.037 33.8366 154.424 33.7715H140.996V56.0859ZM221.611 87.6289C218.128 91.8607 213.311 93.9766 207.158 93.9766C201.494 93.9766 197.165 92.349 194.17 89.0938C191.208 85.8385 189.694 81.0697 189.629 74.7871V40.168H203.74V74.2988C203.74 79.8001 206.247 82.5508 211.26 82.5508C216.045 82.5508 219.333 80.8906 221.123 77.5703V40.168H235.283V93H222.002L221.611 87.6289ZM275.615 53.4004C273.695 53.14 272.002 53.0098 270.537 53.0098C265.199 53.0098 261.699 54.8164 260.039 58.4297V93H245.928V40.168H259.258L259.648 46.4668C262.48 41.6165 266.403 39.1914 271.416 39.1914C272.979 39.1914 274.443 39.403 275.811 39.8262L275.615 53.4004ZM305.791 93.9766C298.044 93.9766 291.729 91.6003 286.846 86.8477C281.995 82.0951 279.57 75.7637 279.57 67.8535V66.4863C279.57 61.1803 280.596 56.444 282.646 52.2773C284.697 48.0781 287.594 44.8555 291.338 42.6094C295.114 40.3307 299.411 39.1914 304.229 39.1914C311.455 39.1914 317.135 41.4701 321.27 46.0273C325.436 50.5846 327.52 57.0462 327.52 65.4121V71.1738H293.877C294.333 74.6243 295.7 77.3913 297.979 79.4746C300.29 81.5579 303.203 82.5996 306.719 82.5996C312.155 82.5996 316.403 80.6302 319.463 76.6914L326.396 84.4551C324.281 87.4499 321.416 89.7936 317.803 91.4863C314.189 93.1465 310.186 93.9766 305.791 93.9766ZM304.18 50.6172C301.38 50.6172 299.102 51.5612 297.344 53.4492C295.618 55.3372 294.512 58.0391 294.023 61.5547H313.652V60.4316C313.587 57.3066 312.741 54.8978 311.113 53.2051C309.486 51.4798 307.174 50.6172 304.18 50.6172ZM334.795 66.1445C334.795 58.0391 336.715 51.5286 340.557 46.6133C344.398 41.6654 349.427 39.1914 355.645 39.1914C361.829 39.1914 366.729 41.3073 370.342 45.5391V18H379.375V93H371.074L370.635 87.3359C367.021 91.763 361.992 93.9766 355.547 93.9766C349.427 93.9766 344.43 91.4701 340.557 86.457C336.715 81.444 334.795 74.901 334.795 66.8281V66.1445ZM343.828 67.1699C343.828 73.1595 345.065 77.847 347.539 81.2324C350.013 84.6178 353.431 86.3105 357.793 86.3105C363.522 86.3105 367.705 83.7389 370.342 78.5957V54.3281C367.64 49.3477 363.49 46.8574 357.891 46.8574C353.464 46.8574 350.013 48.5664 347.539 51.9844C345.065 55.4023 343.828 60.4642 343.828 67.1699ZM426.055 87.7754C422.539 91.9095 417.38 93.9766 410.576 93.9766C404.945 93.9766 400.648 92.349 397.686 89.0938C394.756 85.806 393.275 80.9557 393.242 74.543V40.168H402.275V74.2988C402.275 82.3066 405.531 86.3105 412.041 86.3105C418.942 86.3105 423.532 83.7389 425.811 78.5957V40.168H434.844V93H426.25L426.055 87.7754ZM466.338 59.4551L478.057 40.168H488.604L471.318 66.291L489.141 93H478.691L466.484 73.2246L454.277 93H443.779L461.602 66.291L444.316 40.168H454.766L466.338 59.4551ZM517.021 66.4863H493.193V59.1133H517.021V66.4863ZM548.223 61.3105C540.182 58.9993 534.323 56.1673 530.645 52.8145C526.999 49.429 525.176 45.2624 525.176 40.3145C525.176 34.7155 527.406 30.0931 531.865 26.4473C536.357 22.7689 542.184 20.9297 549.346 20.9297C554.229 20.9297 558.574 21.8737 562.383 23.7617C566.224 25.6497 569.186 28.2539 571.27 31.5742C573.385 34.8945 574.443 38.5241 574.443 42.4629H565.02C565.02 38.166 563.652 34.7969 560.918 32.3555C558.184 29.8815 554.326 28.6445 549.346 28.6445C544.723 28.6445 541.11 29.6699 538.506 31.7207C535.934 33.7389 534.648 36.5547 534.648 40.168C534.648 43.0651 535.869 45.5228 538.311 47.541C540.785 49.5267 544.967 51.3496 550.859 53.0098C556.784 54.6699 561.406 56.5091 564.727 58.5273C568.079 60.513 570.553 62.8405 572.148 65.5098C573.776 68.179 574.59 71.3203 574.59 74.9336C574.59 80.6953 572.344 85.3177 567.852 88.8008C563.359 92.2513 557.354 93.9766 549.834 93.9766C544.951 93.9766 540.394 93.0488 536.162 91.1934C531.93 89.3053 528.659 86.7337 526.348 83.4785C524.069 80.2233 522.93 76.5286 522.93 72.3945H532.354C532.354 76.6914 533.932 80.0931 537.09 82.5996C540.28 85.0736 544.528 86.3105 549.834 86.3105C554.782 86.3105 558.574 85.3014 561.211 83.2832C563.848 81.265 565.166 78.5143 565.166 75.0312C565.166 71.5482 563.945 68.8626 561.504 66.9746C559.062 65.054 554.635 63.166 548.223 61.3105ZM597.49 27.375V40.168H607.354V47.1504H597.49V79.9141C597.49 82.0299 597.93 83.625 598.809 84.6992C599.688 85.7409 601.185 86.2617 603.301 86.2617C604.342 86.2617 605.775 86.0664 607.598 85.6758V93C605.221 93.651 602.91 93.9766 600.664 93.9766C596.628 93.9766 593.584 92.7559 591.533 90.3145C589.482 87.873 588.457 84.4062 588.457 79.9141V47.1504H578.838V40.168H588.457V27.375H597.49ZM614.58 66.0957C614.58 60.9199 615.589 56.265 617.607 52.1309C619.658 47.9967 622.49 44.8066 626.104 42.5605C629.749 40.3145 633.9 39.1914 638.555 39.1914C645.749 39.1914 651.559 41.6816 655.986 46.6621C660.446 51.6426 662.676 58.2669 662.676 66.5352V67.1699C662.676 72.3132 661.683 76.9355 659.697 81.0371C657.744 85.1061 654.928 88.2799 651.25 90.5586C647.604 92.8372 643.405 93.9766 638.652 93.9766C631.491 93.9766 625.68 91.4863 621.221 86.5059C616.794 81.5254 614.58 74.9336 614.58 66.7305V66.0957ZM623.662 67.1699C623.662 73.0293 625.013 77.7331 627.715 81.2812C630.449 84.8294 634.095 86.6035 638.652 86.6035C643.242 86.6035 646.888 84.8132 649.59 81.2324C652.292 77.6191 653.643 72.5736 653.643 66.0957C653.643 60.3014 652.259 55.6139 649.492 52.0332C646.758 48.4199 643.112 46.6133 638.555 46.6133C634.095 46.6133 630.498 48.3874 627.764 51.9355C625.029 55.4837 623.662 60.5618 623.662 67.1699ZM699.541 48.2734C698.174 48.0456 696.693 47.9316 695.098 47.9316C689.173 47.9316 685.153 50.4544 683.037 55.5V93H674.004V40.168H682.793L682.939 46.2715C685.902 41.5514 690.101 39.1914 695.537 39.1914C697.295 39.1914 698.63 39.4193 699.541 39.875V48.2734ZM728.838 93.9766C721.676 93.9766 715.85 91.6328 711.357 86.9453C706.865 82.2253 704.619 75.9264 704.619 68.0488V66.3887C704.619 61.1478 705.612 56.4766 707.598 52.375C709.616 48.2409 712.415 45.0182 715.996 42.707C719.609 40.3633 723.516 39.1914 727.715 39.1914C734.583 39.1914 739.922 41.4538 743.73 45.9785C747.539 50.5033 749.443 56.9811 749.443 65.4121V69.1719H713.652C713.783 74.3802 715.296 78.5957 718.193 81.8184C721.123 85.0085 724.834 86.6035 729.326 86.6035C732.516 86.6035 735.218 85.9525 737.432 84.6504C739.645 83.3483 741.582 81.623 743.242 79.4746L748.76 83.7715C744.333 90.5749 737.692 93.9766 728.838 93.9766ZM727.715 46.6133C724.069 46.6133 721.009 47.9479 718.535 50.6172C716.061 53.2539 714.531 56.9648 713.945 61.75H740.41V61.0664C740.15 56.4766 738.913 52.9284 736.699 50.4219C734.486 47.8828 731.491 46.6133 727.715 46.6133Z" fill="black"/>
<path fill-rule="evenodd" clip-rule="evenodd" d="M106 69C106 91.0914 88.0914 109 66 109V99C82.5685 99 96 85.5685 96 69C96 52.4315 82.5685 39 66 39V29C88.0914 29 106 46.9086 106 69Z" fill="black"/>
<path fill-rule="evenodd" clip-rule="evenodd" d="M0 49C0 26.9086 17.9086 9 40 9V19C23.4315 19 10 32.4315 10 49C10 65.5685 23.4315 79 40 79V89C17.9086 89 0 71.0914 0 49Z" fill="black"/>
<path d="M43 79H53C58.5228 79 63 83.4772 63 89V109H53C47.4772 109 43 104.523 43 99V79Z" fill="black"/>
<path d="M43 9H53C58.5228 9 63 13.4772 63 19V39H53C47.4772 39 43 34.5228 43 29V9Z" fill="black"/>
</svg>
