<svg width="497" height="302" viewBox="0 0 497 302" fill="none" xmlns="http://www.w3.org/2000/svg">
<path d="M142.609 67.9512V93H127.961V21.9062H155.695C161.034 21.9062 165.721 22.8828 169.758 24.8359C173.827 26.7891 176.952 29.5723 179.133 33.1855C181.314 36.7663 182.404 40.8516 182.404 45.4414C182.404 52.4076 180.012 57.9089 175.227 61.9453C170.474 65.9492 163.882 67.9512 155.451 67.9512H142.609ZM142.609 56.0859H155.695C159.569 56.0859 162.515 55.1745 164.533 53.3516C166.584 51.5286 167.609 48.9245 167.609 45.5391C167.609 42.056 166.584 39.2402 164.533 37.0918C162.482 34.9434 159.65 33.8366 156.037 33.7715H142.609V56.0859ZM223.225 87.6289C219.742 91.8607 214.924 93.9766 208.771 93.9766C203.107 93.9766 198.778 92.349 195.783 89.0938C192.821 85.8385 191.307 81.0697 191.242 74.7871V40.168H205.354V74.2988C205.354 79.8001 207.86 82.5508 212.873 82.5508C217.658 82.5508 220.946 80.8906 222.736 77.5703V40.168H236.896V93H223.615L223.225 87.6289ZM277.229 53.4004C275.308 53.14 273.615 53.0098 272.15 53.0098C266.812 53.0098 263.312 54.8164 261.652 58.4297V93H247.541V40.168H260.871L261.262 46.4668C264.094 41.6165 268.016 39.1914 273.029 39.1914C274.592 39.1914 276.057 39.403 277.424 39.8262L277.229 53.4004ZM307.404 93.9766C299.657 93.9766 293.342 91.6003 288.459 86.8477C283.609 82.0951 281.184 75.7637 281.184 67.8535V66.4863C281.184 61.1803 282.209 56.444 284.26 52.2773C286.311 48.0781 289.208 44.8555 292.951 42.6094C296.727 40.3307 301.024 39.1914 305.842 39.1914C313.068 39.1914 318.749 41.4701 322.883 46.0273C327.049 50.5846 329.133 57.0462 329.133 65.4121V71.1738H295.49C295.946 74.6243 297.313 77.3913 299.592 79.4746C301.903 81.5579 304.816 82.5996 308.332 82.5996C313.768 82.5996 318.016 80.6302 321.076 76.6914L328.01 84.4551C325.894 87.4499 323.029 89.7936 319.416 91.4863C315.803 93.1465 311.799 93.9766 307.404 93.9766ZM305.793 50.6172C302.993 50.6172 300.715 51.5612 298.957 53.4492C297.232 55.3372 296.125 58.0391 295.637 61.5547H315.266V60.4316C315.201 57.3066 314.354 54.8978 312.727 53.2051C311.099 51.4798 308.788 50.6172 305.793 50.6172ZM336.408 66.1445C336.408 58.0391 338.329 51.5286 342.17 46.6133C346.011 41.6654 351.04 39.1914 357.258 39.1914C363.443 39.1914 368.342 41.3073 371.955 45.5391V18H380.988V93H372.688L372.248 87.3359C368.635 91.763 363.605 93.9766 357.16 93.9766C351.04 93.9766 346.044 91.4701 342.17 86.457C338.329 81.444 336.408 74.901 336.408 66.8281V66.1445ZM345.441 67.1699C345.441 73.1595 346.678 77.847 349.152 81.2324C351.626 84.6178 355.044 86.3105 359.406 86.3105C365.135 86.3105 369.318 83.7389 371.955 78.5957V54.3281C369.253 49.3477 365.103 46.8574 359.504 46.8574C355.077 46.8574 351.626 48.5664 349.152 51.9844C346.678 55.4023 345.441 60.4642 345.441 67.1699ZM427.668 87.7754C424.152 91.9095 418.993 93.9766 412.189 93.9766C406.558 93.9766 402.261 92.349 399.299 89.0938C396.369 85.806 394.888 80.9557 394.855 74.543V40.168H403.889V74.2988C403.889 82.3066 407.144 86.3105 413.654 86.3105C420.555 86.3105 425.145 83.7389 427.424 78.5957V40.168H436.457V93H427.863L427.668 87.7754ZM467.951 59.4551L479.67 40.168H490.217L472.932 66.291L490.754 93H480.305L468.098 73.2246L455.891 93H445.393L463.215 66.291L445.93 40.168H456.379L467.951 59.4551Z" fill="black"/>
<path d="M62.6484 216.818C45.6029 211.919 33.181 205.915 25.3828 198.807C17.6536 191.63 13.7891 182.796 13.7891 172.307C13.7891 160.437 18.5163 150.637 27.9707 142.908C37.4941 135.11 49.847 131.211 65.0293 131.211C75.3809 131.211 84.5938 133.212 92.668 137.215C100.811 141.217 107.091 146.738 111.508 153.777C115.993 160.816 118.236 168.511 118.236 176.861H98.2578C98.2578 167.752 95.3594 160.609 89.5625 155.434C83.7656 150.189 75.5879 147.566 65.0293 147.566C55.2298 147.566 47.5697 149.74 42.0488 154.088C36.597 158.367 33.8711 164.336 33.8711 171.996C33.8711 178.138 36.459 183.348 41.6348 187.627C46.8796 191.837 55.7474 195.701 68.2383 199.221C80.7982 202.74 90.5977 206.639 97.6367 210.918C104.745 215.128 109.99 220.062 113.371 225.721C116.822 231.38 118.547 238.039 118.547 245.699C118.547 257.914 113.785 267.714 104.262 275.098C94.7383 282.413 82.0059 286.07 66.0645 286.07C55.7129 286.07 46.0514 284.104 37.0801 280.17C28.1087 276.167 21.1732 270.715 16.2734 263.814C11.4427 256.913 9.02734 249.081 9.02734 240.316H29.0059C29.0059 249.426 32.3529 256.637 39.0469 261.951C45.8099 267.196 54.8158 269.818 66.0645 269.818C76.554 269.818 84.5938 267.679 90.1836 263.4C95.7734 259.122 98.5684 253.29 98.5684 245.906C98.5684 238.522 95.9805 232.829 90.8047 228.826C85.6289 224.755 76.2435 220.752 62.6484 216.818ZM167.096 144.875V171.996H188.006V186.799H167.096V256.258C167.096 260.743 168.027 264.125 169.891 266.402C171.754 268.611 174.928 269.715 179.414 269.715C181.622 269.715 184.659 269.301 188.523 268.473V284C183.486 285.38 178.586 286.07 173.824 286.07C165.267 286.07 158.814 283.482 154.467 278.307C150.119 273.131 147.945 265.781 147.945 256.258V186.799H127.553V171.996H147.945V144.875H167.096ZM203.326 226.963C203.326 215.99 205.465 206.122 209.744 197.357C214.092 188.593 220.096 181.83 227.756 177.068C235.485 172.307 244.284 169.926 254.152 169.926C269.404 169.926 281.722 175.205 291.107 185.764C300.562 196.322 305.289 210.366 305.289 227.895V229.24C305.289 240.144 303.184 249.943 298.975 258.639C294.834 267.265 288.865 273.993 281.066 278.824C273.337 283.655 264.435 286.07 254.359 286.07C239.177 286.07 226.859 280.791 217.404 270.232C208.019 259.674 203.326 245.699 203.326 228.309V226.963ZM222.58 229.24C222.58 241.662 225.444 251.634 231.172 259.156C236.969 266.678 244.698 270.439 254.359 270.439C264.09 270.439 271.819 266.644 277.547 259.053C283.275 251.393 286.139 240.696 286.139 226.963C286.139 214.679 283.206 204.742 277.34 197.15C271.543 189.49 263.814 185.66 254.152 185.66C244.698 185.66 237.072 189.421 231.275 196.943C225.479 204.465 222.58 215.231 222.58 229.24ZM383.443 189.18C380.545 188.697 377.405 188.455 374.023 188.455C361.464 188.455 352.941 193.803 348.455 204.5V284H329.305V171.996H347.938L348.248 184.936C354.528 174.929 363.43 169.926 374.955 169.926C378.682 169.926 381.511 170.409 383.443 171.375V189.18ZM445.553 286.07C430.37 286.07 418.018 281.102 408.494 271.164C398.971 261.158 394.209 247.804 394.209 231.104V227.584C394.209 216.473 396.314 206.57 400.523 197.875C404.802 189.111 410.737 182.279 418.328 177.379C425.988 172.41 434.27 169.926 443.172 169.926C457.733 169.926 469.051 174.722 477.125 184.314C485.199 193.907 489.236 207.64 489.236 225.514V233.484H413.359C413.635 244.526 416.844 253.463 422.986 260.295C429.197 267.058 437.064 270.439 446.588 270.439C453.351 270.439 459.079 269.059 463.771 266.299C468.464 263.538 472.57 259.881 476.09 255.326L487.787 264.436C478.402 278.859 464.324 286.07 445.553 286.07ZM443.172 185.66C435.443 185.66 428.956 188.49 423.711 194.148C418.466 199.738 415.223 207.605 413.98 217.75H470.086V216.301C469.534 206.57 466.911 199.048 462.219 193.734C457.526 188.352 451.177 185.66 443.172 185.66Z" fill="black"/>
<path fill-rule="evenodd" clip-rule="evenodd" d="M107 68C107 90.0914 89.0914 108 67 108V98C83.5685 98 97 84.5685 97 68C97 51.4315 83.5685 38 67 38V28C89.0914 28 107 45.9086 107 68Z" fill="black"/>
<path fill-rule="evenodd" clip-rule="evenodd" d="M1 48C1 25.9086 18.9086 8 41 8V18C24.4315 18 11 31.4315 11 48C11 64.5685 24.4315 78 41 78V88C18.9086 88 1 70.0914 1 48Z" fill="black"/>
<path d="M44 78H54C59.5228 78 64 82.4772 64 88V108H54C48.4772 108 44 103.523 44 98V78Z" fill="black"/>
<path d="M44 8H54C59.5228 8 64 12.4772 64 18V38H54C48.4772 38 44 33.5228 44 28V8Z" fill="black"/>
</svg>
