<svg width="3087" height="579" viewBox="0 0 3087 579" fill="none" xmlns="http://www.w3.org/2000/svg">
<path d="M1115.91 342.414H1031.86V289.398H1115.91C1128.9 289.398 1139.48 287.284 1147.63 283.055C1155.79 278.674 1161.76 272.633 1165.53 264.93C1169.31 257.227 1171.2 248.542 1171.2 238.875C1171.2 229.057 1169.31 219.919 1165.53 211.461C1161.76 203.003 1155.79 196.206 1147.63 191.07C1139.48 185.935 1128.9 183.367 1115.91 183.367H1055.42V460H987.453V130.125H1115.91C1141.74 130.125 1163.87 134.807 1182.3 144.172C1200.88 153.385 1215.07 166.148 1224.89 182.461C1234.71 198.773 1239.62 217.427 1239.62 238.422C1239.62 259.719 1234.71 278.146 1224.89 293.703C1215.07 309.26 1200.88 321.268 1182.3 329.727C1163.87 338.185 1141.74 342.414 1115.91 342.414ZM1427.44 401.32V214.859H1492.69V460H1431.29L1427.44 401.32ZM1434.69 351.023L1453.95 350.57C1453.95 366.883 1452.06 382.062 1448.28 396.109C1444.51 410.005 1438.84 422.089 1431.29 432.359C1423.74 442.479 1414.22 450.409 1402.74 456.148C1391.26 461.737 1377.74 464.531 1362.19 464.531C1350.26 464.531 1339.23 462.87 1329.11 459.547C1319.14 456.073 1310.53 450.711 1303.28 443.461C1296.18 436.06 1290.59 426.62 1286.52 415.141C1282.59 403.51 1280.62 389.539 1280.62 373.227V214.859H1345.88V373.68C1345.88 380.93 1346.71 387.047 1348.37 392.031C1350.18 397.016 1352.67 401.094 1355.84 404.266C1359.02 407.438 1362.72 409.703 1366.95 411.062C1371.33 412.422 1376.16 413.102 1381.45 413.102C1394.89 413.102 1405.46 410.383 1413.16 404.945C1421.02 399.508 1426.53 392.107 1429.7 382.742C1433.03 373.227 1434.69 362.654 1434.69 351.023ZM1607.78 268.328V460H1542.53V214.859H1603.93L1607.78 268.328ZM1681.64 213.273L1680.51 273.766C1677.34 273.312 1673.48 272.935 1668.95 272.633C1664.57 272.18 1660.57 271.953 1656.95 271.953C1647.73 271.953 1639.73 273.161 1632.93 275.578C1626.28 277.844 1620.7 281.242 1616.16 285.773C1611.78 290.305 1608.46 295.818 1606.2 302.312C1604.08 308.807 1602.87 316.208 1602.57 324.516L1589.43 320.438C1589.43 304.578 1591.02 290.003 1594.19 276.711C1597.36 263.268 1601.97 251.562 1608.01 241.594C1614.2 231.625 1621.75 223.922 1630.66 218.484C1639.58 213.047 1649.77 210.328 1661.25 210.328C1664.88 210.328 1668.58 210.63 1672.35 211.234C1676.13 211.688 1679.22 212.367 1681.64 213.273ZM1820.75 464.531C1801.72 464.531 1784.65 461.51 1769.55 455.469C1754.44 449.276 1741.6 440.742 1731.03 429.867C1720.61 418.992 1712.6 406.38 1707.02 392.031C1701.43 377.531 1698.63 362.125 1698.63 345.812V336.75C1698.63 318.172 1701.28 301.18 1706.56 285.773C1711.85 270.367 1719.4 257 1729.22 245.672C1739.19 234.344 1751.27 225.659 1765.47 219.617C1779.67 213.424 1795.68 210.328 1813.5 210.328C1830.87 210.328 1846.28 213.198 1859.72 218.938C1873.16 224.677 1884.41 232.833 1893.48 243.406C1902.69 253.979 1909.64 266.667 1914.32 281.469C1919 296.12 1921.34 312.432 1921.34 330.406V357.594H1726.5V314.094H1857.23V309.109C1857.23 300.047 1855.57 291.966 1852.24 284.867C1849.07 277.617 1844.24 271.878 1837.74 267.648C1831.25 263.419 1822.94 261.305 1812.82 261.305C1804.21 261.305 1796.81 263.193 1790.62 266.969C1784.42 270.745 1779.36 276.031 1775.44 282.828C1771.66 289.625 1768.79 297.63 1766.83 306.844C1765.02 315.906 1764.11 325.875 1764.11 336.75V345.812C1764.11 355.63 1765.47 364.693 1768.19 373C1771.06 381.307 1775.06 388.482 1780.2 394.523C1785.48 400.565 1791.83 405.247 1799.23 408.57C1806.78 411.893 1815.31 413.555 1824.83 413.555C1836.61 413.555 1847.56 411.289 1857.68 406.758C1867.95 402.076 1876.79 395.052 1884.19 385.688L1915.91 420.125C1910.77 427.526 1903.75 434.625 1894.84 441.422C1886.08 448.219 1875.5 453.807 1863.12 458.188C1850.73 462.417 1836.61 464.531 1820.75 464.531ZM2119.59 412.422V112H2161.73V460H2123.21L2119.59 412.422ZM1954.65 340.148V335.391C1954.65 316.661 1956.91 299.669 1961.45 284.414C1966.13 269.008 1972.7 255.792 1981.16 244.766C1989.77 233.74 1999.96 225.281 2011.74 219.391C2023.67 213.349 2036.97 210.328 2051.62 210.328C2067.02 210.328 2080.47 213.047 2091.95 218.484C2103.58 223.771 2113.39 231.549 2121.4 241.82C2129.55 251.94 2135.97 264.174 2140.66 278.523C2145.34 292.872 2148.59 309.109 2150.4 327.234V348.078C2148.74 366.052 2145.49 382.214 2140.66 396.562C2135.97 410.911 2129.55 423.146 2121.4 433.266C2113.39 443.385 2103.58 451.164 2091.95 456.602C2080.32 461.888 2066.72 464.531 2051.16 464.531C2036.82 464.531 2023.67 461.435 2011.74 455.242C1999.96 449.049 1989.77 440.365 1981.16 429.188C1972.7 418.01 1966.13 404.87 1961.45 389.766C1956.91 374.51 1954.65 357.971 1954.65 340.148ZM1996.79 335.391V340.148C1996.79 352.383 1998 363.862 2000.41 374.586C2002.98 385.31 2006.91 394.75 2012.2 402.906C2017.48 411.062 2024.2 417.482 2032.36 422.164C2040.52 426.695 2050.26 428.961 2061.59 428.961C2075.48 428.961 2086.89 426.016 2095.8 420.125C2104.86 414.234 2112.11 406.456 2117.55 396.789C2122.98 387.122 2127.21 376.625 2130.23 365.297V310.695C2128.42 302.388 2125.78 294.383 2122.3 286.68C2118.98 278.826 2114.6 271.878 2109.16 265.836C2103.88 259.643 2097.31 254.734 2089.45 251.109C2081.75 247.484 2072.61 245.672 2062.04 245.672C2050.56 245.672 2040.67 248.089 2032.36 252.922C2024.2 257.604 2017.48 264.099 2012.2 272.406C2006.91 280.562 2002.98 290.078 2000.41 300.953C1998 311.677 1996.79 323.156 1996.79 335.391ZM2376.96 403.359V214.859H2419.1V460H2379L2376.96 403.359ZM2384.89 351.703L2402.34 351.25C2402.34 367.562 2400.6 382.667 2397.12 396.562C2393.8 410.307 2388.36 422.24 2380.81 432.359C2373.26 442.479 2363.37 450.409 2351.13 456.148C2338.9 461.737 2324.02 464.531 2306.5 464.531C2294.57 464.531 2283.62 462.794 2273.65 459.32C2263.83 455.846 2255.37 450.484 2248.27 443.234C2241.17 435.984 2235.66 426.544 2231.73 414.914C2227.96 403.284 2226.07 389.312 2226.07 373V214.859H2267.98V373.453C2267.98 384.479 2269.19 393.617 2271.61 400.867C2274.18 407.966 2277.58 413.63 2281.8 417.859C2286.18 421.938 2291.02 424.807 2296.3 426.469C2301.74 428.13 2307.33 428.961 2313.07 428.961C2330.89 428.961 2345.02 425.562 2355.44 418.766C2365.86 411.818 2373.34 402.529 2377.87 390.898C2382.55 379.117 2384.89 366.052 2384.89 351.703ZM2511.31 214.859L2565.01 304.125L2619.38 214.859H2668.55L2588.34 335.844L2671.04 460H2622.55L2565.91 368.016L2509.27 460H2460.56L2543.03 335.844L2463.05 214.859H2511.31Z" fill="white"/>
<path fill-rule="evenodd" clip-rule="evenodd" d="M901.001 342.031C901.001 446.236 816.526 530.71 712.321 530.71C712.321 530.71 712.321 530.71 712.321 530.71V483.539C712.322 483.539 712.322 483.539 712.322 483.539C790.476 483.539 853.832 420.183 853.832 342.029C853.832 263.876 790.476 200.52 712.322 200.52C712.322 200.52 712.322 200.52 712.321 200.52V153.355H711.102C711.508 153.353 711.915 153.352 712.321 153.352C816.526 153.352 901.001 237.826 901.001 342.031Z" fill="white"/>
<path fill-rule="evenodd" clip-rule="evenodd" d="M778.359 247.959C778.359 247.866 778.359 247.773 778.359 247.68C778.359 247.587 778.359 247.494 778.359 247.401V247.959ZM590.878 59.0044C590.479 59.002 590.08 59.0007 589.68 59.0007C485.475 59.0007 401.001 143.475 401.001 247.68C401.001 351.885 485.475 436.359 589.68 436.359V389.191C589.68 389.191 589.68 389.191 589.679 389.191C511.526 389.191 448.17 325.835 448.17 247.682C448.17 169.528 511.526 106.172 589.679 106.172C589.68 106.172 589.68 106.172 589.68 106.172V59.0044H590.878Z" fill="white"/>
<path d="M603.83 389.195H648.169C675.783 389.195 698.169 411.581 698.169 439.195V530.705H653.83C626.215 530.705 603.83 508.319 603.83 480.705V389.195Z" fill="white"/>
<path d="M603.83 59H648.169C675.783 59 698.169 81.3858 698.169 109V200.51H653.83C626.215 200.51 603.83 178.124 603.83 150.51V59Z" fill="white"/>
</svg>
