<svg width="492" height="118" viewBox="0 0 492 118" fill="none" xmlns="http://www.w3.org/2000/svg">
<path d="M154.033 67.6582H135.918V56.2324H154.033C156.833 56.2324 159.111 55.7767 160.869 54.8652C162.627 53.9212 163.913 52.6191 164.727 50.959C165.54 49.2988 165.947 47.4271 165.947 45.3438C165.947 43.2279 165.54 41.2585 164.727 39.4355C163.913 37.6126 162.627 36.1478 160.869 35.041C159.111 33.9342 156.833 33.3809 154.033 33.3809H140.996V93H126.348V21.9062H154.033C159.6 21.9062 164.368 22.9154 168.34 24.9336C172.344 26.9193 175.404 29.6699 177.52 33.1855C179.635 36.7012 180.693 40.7214 180.693 45.2461C180.693 49.8359 179.635 53.8073 177.52 57.1602C175.404 60.513 172.344 63.1009 168.34 64.9238C164.368 66.7467 159.6 67.6582 154.033 67.6582ZM221.172 80.3535V40.168H235.234V93H222.002L221.172 80.3535ZM222.734 69.5137L226.885 69.416C226.885 72.9316 226.478 76.2031 225.664 79.2305C224.85 82.2253 223.63 84.8294 222.002 87.043C220.374 89.224 218.324 90.9329 215.85 92.1699C213.376 93.3743 210.462 93.9766 207.109 93.9766C204.538 93.9766 202.161 93.6185 199.98 92.9023C197.832 92.1536 195.977 90.998 194.414 89.4355C192.884 87.8405 191.68 85.806 190.801 83.332C189.954 80.8255 189.531 77.8145 189.531 74.2988V40.168H203.594V74.3965C203.594 75.959 203.773 77.2773 204.131 78.3516C204.521 79.4258 205.059 80.3047 205.742 80.9883C206.426 81.6719 207.223 82.1602 208.135 82.4531C209.079 82.7461 210.12 82.8926 211.26 82.8926C214.157 82.8926 216.436 82.3066 218.096 81.1348C219.788 79.9629 220.977 78.3678 221.66 76.3496C222.376 74.2988 222.734 72.0202 222.734 69.5137ZM260.039 51.6914V93H245.977V40.168H259.209L260.039 51.6914ZM275.957 39.8262L275.713 52.8633C275.029 52.7656 274.199 52.6842 273.223 52.6191C272.279 52.5215 271.416 52.4727 270.635 52.4727C268.649 52.4727 266.924 52.7331 265.459 53.2539C264.027 53.7422 262.822 54.4746 261.846 55.4512C260.902 56.4277 260.186 57.6159 259.697 59.0156C259.242 60.4154 258.981 62.0104 258.916 63.8008L256.084 62.9219C256.084 59.5039 256.426 56.3626 257.109 53.498C257.793 50.6009 258.786 48.0781 260.088 45.9297C261.423 43.7812 263.05 42.1211 264.971 40.9492C266.891 39.7773 269.089 39.1914 271.562 39.1914C272.344 39.1914 273.141 39.2565 273.955 39.3867C274.769 39.4844 275.436 39.6309 275.957 39.8262ZM305.938 93.9766C301.836 93.9766 298.158 93.3255 294.902 92.0234C291.647 90.6888 288.88 88.8496 286.602 86.5059C284.355 84.1621 282.63 81.444 281.426 78.3516C280.221 75.2266 279.619 71.9062 279.619 68.3906V66.4375C279.619 62.4336 280.189 58.7715 281.328 55.4512C282.467 52.1309 284.095 49.25 286.211 46.8086C288.359 44.3672 290.964 42.4954 294.023 41.1934C297.083 39.8587 300.534 39.1914 304.375 39.1914C308.118 39.1914 311.439 39.8099 314.336 41.0469C317.233 42.2839 319.658 44.0417 321.611 46.3203C323.597 48.599 325.094 51.3333 326.104 54.5234C327.113 57.681 327.617 61.1966 327.617 65.0703V70.9297H285.625V61.5547H313.799V60.4805C313.799 58.5273 313.441 56.7858 312.725 55.2559C312.041 53.6934 310.999 52.4564 309.6 51.5449C308.2 50.6335 306.41 50.1777 304.229 50.1777C302.373 50.1777 300.778 50.5846 299.443 51.3984C298.109 52.2122 297.018 53.3516 296.172 54.8164C295.358 56.2812 294.74 58.0065 294.316 59.9922C293.926 61.9453 293.73 64.0938 293.73 66.4375V68.3906C293.73 70.5065 294.023 72.4596 294.609 74.25C295.228 76.0404 296.09 77.5866 297.197 78.8887C298.337 80.1908 299.704 81.1999 301.299 81.916C302.926 82.6322 304.766 82.9902 306.816 82.9902C309.355 82.9902 311.715 82.502 313.896 81.5254C316.11 80.5163 318.014 79.0026 319.609 76.9844L326.445 84.4062C325.339 86.0013 323.825 87.5312 321.904 88.9961C320.016 90.4609 317.738 91.6654 315.068 92.6094C312.399 93.5208 309.355 93.9766 305.938 93.9766ZM370.342 82.7461V18H379.424V93H371.123L370.342 82.7461ZM334.795 67.1699V66.1445C334.795 62.1081 335.283 58.446 336.26 55.1582C337.269 51.8379 338.685 48.9896 340.508 46.6133C342.363 44.237 344.561 42.4141 347.1 41.1445C349.671 39.8424 352.536 39.1914 355.693 39.1914C359.014 39.1914 361.911 39.7773 364.385 40.9492C366.891 42.0885 369.007 43.765 370.732 45.9785C372.49 48.1595 373.874 50.7962 374.883 53.8887C375.892 56.9811 376.592 60.4805 376.982 64.3867V68.8789C376.624 72.7526 375.924 76.2357 374.883 79.3281C373.874 82.4206 372.49 85.0573 370.732 87.2383C369.007 89.4193 366.891 91.0957 364.385 92.2676C361.878 93.4069 358.949 93.9766 355.596 93.9766C352.503 93.9766 349.671 93.3092 347.1 91.9746C344.561 90.64 342.363 88.7682 340.508 86.3594C338.685 83.9505 337.269 81.1185 336.26 77.8633C335.283 74.5755 334.795 71.0111 334.795 67.1699ZM343.877 66.1445V67.1699C343.877 69.8066 344.137 72.2806 344.658 74.5918C345.212 76.903 346.058 78.9375 347.197 80.6953C348.337 82.4531 349.785 83.8366 351.543 84.8457C353.301 85.8223 355.4 86.3105 357.842 86.3105C360.837 86.3105 363.294 85.6758 365.215 84.4062C367.168 83.1367 368.73 81.4603 369.902 79.377C371.074 77.2936 371.986 75.0312 372.637 72.5898V60.8223C372.246 59.0319 371.676 57.3066 370.928 55.6465C370.212 53.9538 369.268 52.4564 368.096 51.1543C366.956 49.8197 365.54 48.7617 363.848 47.9805C362.188 47.1992 360.218 46.8086 357.939 46.8086C355.465 46.8086 353.333 47.3294 351.543 48.3711C349.785 49.3802 348.337 50.7799 347.197 52.5703C346.058 54.3281 345.212 56.3789 344.658 58.7227C344.137 61.0339 343.877 63.5078 343.877 66.1445ZM425.811 80.793V40.168H434.893V93H426.25L425.811 80.793ZM427.52 69.6602L431.279 69.5625C431.279 73.0781 430.905 76.3333 430.156 79.3281C429.44 82.2904 428.268 84.862 426.641 87.043C425.013 89.224 422.881 90.9329 420.244 92.1699C417.607 93.3743 414.401 93.9766 410.625 93.9766C408.053 93.9766 405.693 93.6022 403.545 92.8535C401.429 92.1048 399.606 90.9492 398.076 89.3867C396.546 87.8242 395.358 85.7897 394.512 83.2832C393.698 80.7767 393.291 77.7656 393.291 74.25V40.168H402.324V74.3477C402.324 76.724 402.585 78.6934 403.105 80.2559C403.659 81.7858 404.391 83.0065 405.303 83.918C406.247 84.7969 407.288 85.4154 408.428 85.7734C409.6 86.1315 410.804 86.3105 412.041 86.3105C415.882 86.3105 418.926 85.5781 421.172 84.1133C423.418 82.6159 425.029 80.6139 426.006 78.1074C427.015 75.5684 427.52 72.7526 427.52 69.6602ZM454.766 40.168L466.338 59.4062L478.057 40.168H488.652L471.367 66.2422L489.189 93H478.74L466.533 73.1758L454.326 93H443.828L461.602 66.2422L444.365 40.168H454.766Z" fill="white"/>
<path fill-rule="evenodd" clip-rule="evenodd" d="M106 69C106 91.0914 88.0914 109 66 109V99C82.5685 99 96 85.5685 96 69C96 52.4315 82.5685 39 66 39V29C88.0914 29 106 46.9086 106 69Z" fill="white"/>
<path fill-rule="evenodd" clip-rule="evenodd" d="M0 49C0 26.9086 17.9086 9 40 9V19C23.4315 19 10 32.4315 10 49C10 65.5685 23.4315 79 40 79V89C17.9086 89 0 71.0914 0 49Z" fill="white"/>
<path d="M43 79H53C58.5228 79 63 83.4772 63 89V109H53C47.4772 109 43 104.523 43 99V79Z" fill="white"/>
<path d="M43 9H53C58.5228 9 63 13.4772 63 19V39H53C47.4772 39 43 34.5228 43 29V9Z" fill="white"/>
</svg>
