<svg width="2465" height="579" viewBox="0 0 2465 579" fill="none" xmlns="http://www.w3.org/2000/svg">
<path d="M804.914 342.414H720.859V289.398H804.914C817.904 289.398 828.477 287.284 836.633 283.055C844.789 278.674 850.755 272.633 854.531 264.93C858.307 257.227 860.195 248.542 860.195 238.875C860.195 229.057 858.307 219.919 854.531 211.461C850.755 203.003 844.789 196.206 836.633 191.07C828.477 185.935 817.904 183.367 804.914 183.367H744.422V460H676.453V130.125H804.914C830.742 130.125 852.87 134.807 871.297 144.172C889.875 153.385 904.073 166.148 913.891 182.461C923.708 198.773 928.617 217.427 928.617 238.422C928.617 259.719 923.708 278.146 913.891 293.703C904.073 309.26 889.875 321.268 871.297 329.727C852.87 338.185 830.742 342.414 804.914 342.414ZM1116.44 401.32V214.859H1181.69V460H1120.29L1116.44 401.32ZM1123.69 351.023L1142.95 350.57C1142.95 366.883 1141.06 382.062 1137.28 396.109C1133.51 410.005 1127.84 422.089 1120.29 432.359C1112.74 442.479 1103.22 450.409 1091.74 456.148C1080.26 461.737 1066.74 464.531 1051.19 464.531C1039.26 464.531 1028.23 462.87 1018.11 459.547C1008.14 456.073 999.531 450.711 992.281 443.461C985.182 436.06 979.594 426.62 975.516 415.141C971.589 403.51 969.625 389.539 969.625 373.227V214.859H1034.88V373.68C1034.88 380.93 1035.71 387.047 1037.37 392.031C1039.18 397.016 1041.67 401.094 1044.84 404.266C1048.02 407.438 1051.72 409.703 1055.95 411.062C1060.33 412.422 1065.16 413.102 1070.45 413.102C1083.89 413.102 1094.46 410.383 1102.16 404.945C1110.02 399.508 1115.53 392.107 1118.7 382.742C1122.03 373.227 1123.69 362.654 1123.69 351.023ZM1296.78 268.328V460H1231.53V214.859H1292.93L1296.78 268.328ZM1370.64 213.273L1369.51 273.766C1366.34 273.312 1362.48 272.935 1357.95 272.633C1353.57 272.18 1349.57 271.953 1345.95 271.953C1336.73 271.953 1328.73 273.161 1321.93 275.578C1315.28 277.844 1309.7 281.242 1305.16 285.773C1300.78 290.305 1297.46 295.818 1295.2 302.312C1293.08 308.807 1291.87 316.208 1291.57 324.516L1278.43 320.438C1278.43 304.578 1280.02 290.003 1283.19 276.711C1286.36 263.268 1290.97 251.562 1297.01 241.594C1303.2 231.625 1310.75 223.922 1319.66 218.484C1328.58 213.047 1338.77 210.328 1350.25 210.328C1353.88 210.328 1357.58 210.63 1361.35 211.234C1365.13 211.688 1368.22 212.367 1370.64 213.273ZM1509.75 464.531C1490.72 464.531 1473.65 461.51 1458.55 455.469C1443.44 449.276 1430.6 440.742 1420.03 429.867C1409.61 418.992 1401.6 406.38 1396.02 392.031C1390.43 377.531 1387.63 362.125 1387.63 345.812V336.75C1387.63 318.172 1390.28 301.18 1395.56 285.773C1400.85 270.367 1408.4 257 1418.22 245.672C1428.19 234.344 1440.27 225.659 1454.47 219.617C1468.67 213.424 1484.68 210.328 1502.5 210.328C1519.87 210.328 1535.28 213.198 1548.72 218.938C1562.16 224.677 1573.41 232.833 1582.48 243.406C1591.69 253.979 1598.64 266.667 1603.32 281.469C1608 296.12 1610.34 312.432 1610.34 330.406V357.594H1415.5V314.094H1546.23V309.109C1546.23 300.047 1544.57 291.966 1541.24 284.867C1538.07 277.617 1533.24 271.878 1526.74 267.648C1520.25 263.419 1511.94 261.305 1501.82 261.305C1493.21 261.305 1485.81 263.193 1479.62 266.969C1473.42 270.745 1468.36 276.031 1464.44 282.828C1460.66 289.625 1457.79 297.63 1455.83 306.844C1454.02 315.906 1453.11 325.875 1453.11 336.75V345.812C1453.11 355.63 1454.47 364.693 1457.19 373C1460.06 381.307 1464.06 388.482 1469.2 394.523C1474.48 400.565 1480.83 405.247 1488.23 408.57C1495.78 411.893 1504.31 413.555 1513.83 413.555C1525.61 413.555 1536.56 411.289 1546.68 406.758C1556.95 402.076 1565.79 395.052 1573.19 385.688L1604.91 420.125C1599.77 427.526 1592.75 434.625 1583.84 441.422C1575.08 448.219 1564.5 453.807 1552.12 458.188C1539.73 462.417 1525.61 464.531 1509.75 464.531ZM1808.59 412.422V112H1850.73V460H1812.21L1808.59 412.422ZM1643.65 340.148V335.391C1643.65 316.661 1645.91 299.669 1650.45 284.414C1655.13 269.008 1661.7 255.792 1670.16 244.766C1678.77 233.74 1688.96 225.281 1700.74 219.391C1712.67 213.349 1725.97 210.328 1740.62 210.328C1756.02 210.328 1769.47 213.047 1780.95 218.484C1792.58 223.771 1802.39 231.549 1810.4 241.82C1818.55 251.94 1824.97 264.174 1829.66 278.523C1834.34 292.872 1837.59 309.109 1839.4 327.234V348.078C1837.74 366.052 1834.49 382.214 1829.66 396.562C1824.97 410.911 1818.55 423.146 1810.4 433.266C1802.39 443.385 1792.58 451.164 1780.95 456.602C1769.32 461.888 1755.72 464.531 1740.16 464.531C1725.82 464.531 1712.67 461.435 1700.74 455.242C1688.96 449.049 1678.77 440.365 1670.16 429.188C1661.7 418.01 1655.13 404.87 1650.45 389.766C1645.91 374.51 1643.65 357.971 1643.65 340.148ZM1685.79 335.391V340.148C1685.79 352.383 1687 363.862 1689.41 374.586C1691.98 385.31 1695.91 394.75 1701.2 402.906C1706.48 411.062 1713.2 417.482 1721.36 422.164C1729.52 426.695 1739.26 428.961 1750.59 428.961C1764.48 428.961 1775.89 426.016 1784.8 420.125C1793.86 414.234 1801.11 406.456 1806.55 396.789C1811.98 387.122 1816.21 376.625 1819.23 365.297V310.695C1817.42 302.388 1814.78 294.383 1811.3 286.68C1807.98 278.826 1803.6 271.878 1798.16 265.836C1792.88 259.643 1786.31 254.734 1778.45 251.109C1770.75 247.484 1761.61 245.672 1751.04 245.672C1739.56 245.672 1729.67 248.089 1721.36 252.922C1713.2 257.604 1706.48 264.099 1701.2 272.406C1695.91 280.562 1691.98 290.078 1689.41 300.953C1687 311.677 1685.79 323.156 1685.79 335.391ZM2065.96 403.359V214.859H2108.1V460H2068L2065.96 403.359ZM2073.89 351.703L2091.34 351.25C2091.34 367.562 2089.6 382.667 2086.12 396.562C2082.8 410.307 2077.36 422.24 2069.81 432.359C2062.26 442.479 2052.37 450.409 2040.13 456.148C2027.9 461.737 2013.02 464.531 1995.5 464.531C1983.57 464.531 1972.62 462.794 1962.65 459.32C1952.83 455.846 1944.37 450.484 1937.27 443.234C1930.17 435.984 1924.66 426.544 1920.73 414.914C1916.96 403.284 1915.07 389.312 1915.07 373V214.859H1956.98V373.453C1956.98 384.479 1958.19 393.617 1960.61 400.867C1963.18 407.966 1966.58 413.63 1970.8 417.859C1975.18 421.938 1980.02 424.807 1985.3 426.469C1990.74 428.13 1996.33 428.961 2002.07 428.961C2019.89 428.961 2034.02 425.562 2044.44 418.766C2054.86 411.818 2062.34 402.529 2066.87 390.898C2071.55 379.117 2073.89 366.052 2073.89 351.703ZM2200.31 214.859L2254.01 304.125L2308.38 214.859H2357.55L2277.34 335.844L2360.04 460H2311.55L2254.91 368.016L2198.27 460H2149.56L2232.03 335.844L2152.05 214.859H2200.31Z" fill="white"/>
<path fill-rule="evenodd" clip-rule="evenodd" d="M590.001 342.031C590.001 446.236 505.526 530.71 401.321 530.71C401.321 530.71 401.321 530.71 401.321 530.71V483.539C401.322 483.539 401.322 483.539 401.322 483.539C479.476 483.539 542.832 420.183 542.832 342.029C542.832 263.876 479.476 200.52 401.322 200.52C401.322 200.52 401.322 200.52 401.321 200.52V153.355H400.102C400.508 153.353 400.915 153.352 401.321 153.352C505.526 153.352 590.001 237.826 590.001 342.031Z" fill="white"/>
<path fill-rule="evenodd" clip-rule="evenodd" d="M467.359 247.959C467.359 247.866 467.359 247.773 467.359 247.68C467.359 247.587 467.359 247.494 467.359 247.401V247.959ZM279.878 59.0044C279.479 59.002 279.08 59.0007 278.68 59.0007C174.475 59.0007 90.0007 143.475 90.0007 247.68C90.0007 351.885 174.475 436.359 278.68 436.359V389.191C278.68 389.191 278.68 389.191 278.679 389.191C200.526 389.191 137.17 325.835 137.17 247.682C137.17 169.528 200.526 106.172 278.679 106.172C278.68 106.172 278.68 106.172 278.68 106.172L278.68 59.0044H279.878Z" fill="white"/>
<path d="M292.83 389.195H337.169C364.783 389.195 387.169 411.581 387.169 439.195V530.705H342.83C315.215 530.705 292.83 508.319 292.83 480.705V389.195Z" fill="white"/>
<path d="M292.83 59H337.169C364.783 59 387.169 81.3858 387.169 109V200.51H342.83C315.215 200.51 292.83 178.124 292.83 150.51V59Z" fill="white"/>
</svg>
