<svg width="540" height="148" viewBox="0 0 540 148" fill="none" xmlns="http://www.w3.org/2000/svg">
<path d="M178.033 82.6582H159.918V71.2324H178.033C180.833 71.2324 183.111 70.7767 184.869 69.8652C186.627 68.9212 187.913 67.6191 188.727 65.959C189.54 64.2988 189.947 62.4271 189.947 60.3438C189.947 58.2279 189.54 56.2585 188.727 54.4355C187.913 52.6126 186.627 51.1478 184.869 50.041C183.111 48.9342 180.833 48.3809 178.033 48.3809H164.996V108H150.348V36.9062H178.033C183.6 36.9062 188.368 37.9154 192.34 39.9336C196.344 41.9193 199.404 44.6699 201.52 48.1855C203.635 51.7012 204.693 55.7214 204.693 60.2461C204.693 64.8359 203.635 68.8073 201.52 72.1602C199.404 75.513 196.344 78.1009 192.34 79.9238C188.368 81.7467 183.6 82.6582 178.033 82.6582ZM245.172 95.3535V55.168H259.234V108H246.002L245.172 95.3535ZM246.734 84.5137L250.885 84.416C250.885 87.9316 250.478 91.2031 249.664 94.2305C248.85 97.2253 247.63 99.8294 246.002 102.043C244.374 104.224 242.324 105.933 239.85 107.17C237.376 108.374 234.462 108.977 231.109 108.977C228.538 108.977 226.161 108.618 223.98 107.902C221.832 107.154 219.977 105.998 218.414 104.436C216.884 102.84 215.68 100.806 214.801 98.332C213.954 95.8255 213.531 92.8145 213.531 89.2988V55.168H227.594V89.3965C227.594 90.959 227.773 92.2773 228.131 93.3516C228.521 94.4258 229.059 95.3047 229.742 95.9883C230.426 96.6719 231.223 97.1602 232.135 97.4531C233.079 97.7461 234.12 97.8926 235.26 97.8926C238.157 97.8926 240.436 97.3066 242.096 96.1348C243.788 94.9629 244.977 93.3678 245.66 91.3496C246.376 89.2988 246.734 87.0202 246.734 84.5137ZM284.039 66.6914V108H269.977V55.168H283.209L284.039 66.6914ZM299.957 54.8262L299.713 67.8633C299.029 67.7656 298.199 67.6842 297.223 67.6191C296.279 67.5215 295.416 67.4727 294.635 67.4727C292.649 67.4727 290.924 67.7331 289.459 68.2539C288.027 68.7422 286.822 69.4746 285.846 70.4512C284.902 71.4277 284.186 72.6159 283.697 74.0156C283.242 75.4154 282.981 77.0104 282.916 78.8008L280.084 77.9219C280.084 74.5039 280.426 71.3626 281.109 68.498C281.793 65.6009 282.786 63.0781 284.088 60.9297C285.423 58.7812 287.05 57.1211 288.971 55.9492C290.891 54.7773 293.089 54.1914 295.562 54.1914C296.344 54.1914 297.141 54.2565 297.955 54.3867C298.769 54.4844 299.436 54.6309 299.957 54.8262ZM329.938 108.977C325.836 108.977 322.158 108.326 318.902 107.023C315.647 105.689 312.88 103.85 310.602 101.506C308.355 99.1621 306.63 96.444 305.426 93.3516C304.221 90.2266 303.619 86.9062 303.619 83.3906V81.4375C303.619 77.4336 304.189 73.7715 305.328 70.4512C306.467 67.1309 308.095 64.25 310.211 61.8086C312.359 59.3672 314.964 57.4954 318.023 56.1934C321.083 54.8587 324.534 54.1914 328.375 54.1914C332.118 54.1914 335.439 54.8099 338.336 56.0469C341.233 57.2839 343.658 59.0417 345.611 61.3203C347.597 63.599 349.094 66.3333 350.104 69.5234C351.113 72.681 351.617 76.1966 351.617 80.0703V85.9297H309.625V76.5547H337.799V75.4805C337.799 73.5273 337.441 71.7858 336.725 70.2559C336.041 68.6934 334.999 67.4564 333.6 66.5449C332.2 65.6335 330.41 65.1777 328.229 65.1777C326.373 65.1777 324.778 65.5846 323.443 66.3984C322.109 67.2122 321.018 68.3516 320.172 69.8164C319.358 71.2812 318.74 73.0065 318.316 74.9922C317.926 76.9453 317.73 79.0938 317.73 81.4375V83.3906C317.73 85.5065 318.023 87.4596 318.609 89.25C319.228 91.0404 320.09 92.5866 321.197 93.8887C322.337 95.1908 323.704 96.1999 325.299 96.916C326.926 97.6322 328.766 97.9902 330.816 97.9902C333.355 97.9902 335.715 97.502 337.896 96.5254C340.11 95.5163 342.014 94.0026 343.609 91.9844L350.445 99.4062C349.339 101.001 347.825 102.531 345.904 103.996C344.016 105.461 341.738 106.665 339.068 107.609C336.399 108.521 333.355 108.977 329.938 108.977ZM394.342 97.7461V33H403.424V108H395.123L394.342 97.7461ZM358.795 82.1699V81.1445C358.795 77.1081 359.283 73.446 360.26 70.1582C361.269 66.8379 362.685 63.9896 364.508 61.6133C366.363 59.237 368.561 57.4141 371.1 56.1445C373.671 54.8424 376.536 54.1914 379.693 54.1914C383.014 54.1914 385.911 54.7773 388.385 55.9492C390.891 57.0885 393.007 58.765 394.732 60.9785C396.49 63.1595 397.874 65.7962 398.883 68.8887C399.892 71.9811 400.592 75.4805 400.982 79.3867V83.8789C400.624 87.7526 399.924 91.2357 398.883 94.3281C397.874 97.4206 396.49 100.057 394.732 102.238C393.007 104.419 390.891 106.096 388.385 107.268C385.878 108.407 382.949 108.977 379.596 108.977C376.503 108.977 373.671 108.309 371.1 106.975C368.561 105.64 366.363 103.768 364.508 101.359C362.685 98.9505 361.269 96.1185 360.26 92.8633C359.283 89.5755 358.795 86.0111 358.795 82.1699ZM367.877 81.1445V82.1699C367.877 84.8066 368.137 87.2806 368.658 89.5918C369.212 91.903 370.058 93.9375 371.197 95.6953C372.337 97.4531 373.785 98.8366 375.543 99.8457C377.301 100.822 379.4 101.311 381.842 101.311C384.837 101.311 387.294 100.676 389.215 99.4062C391.168 98.1367 392.73 96.4603 393.902 94.377C395.074 92.2936 395.986 90.0312 396.637 87.5898V75.8223C396.246 74.0319 395.676 72.3066 394.928 70.6465C394.212 68.9538 393.268 67.4564 392.096 66.1543C390.956 64.8197 389.54 63.7617 387.848 62.9805C386.188 62.1992 384.218 61.8086 381.939 61.8086C379.465 61.8086 377.333 62.3294 375.543 63.3711C373.785 64.3802 372.337 65.7799 371.197 67.5703C370.058 69.3281 369.212 71.3789 368.658 73.7227C368.137 76.0339 367.877 78.5078 367.877 81.1445ZM449.811 95.793V55.168H458.893V108H450.25L449.811 95.793ZM451.52 84.6602L455.279 84.5625C455.279 88.0781 454.905 91.3333 454.156 94.3281C453.44 97.2904 452.268 99.862 450.641 102.043C449.013 104.224 446.881 105.933 444.244 107.17C441.607 108.374 438.401 108.977 434.625 108.977C432.053 108.977 429.693 108.602 427.545 107.854C425.429 107.105 423.606 105.949 422.076 104.387C420.546 102.824 419.358 100.79 418.512 98.2832C417.698 95.7767 417.291 92.7656 417.291 89.25V55.168H426.324V89.3477C426.324 91.724 426.585 93.6934 427.105 95.2559C427.659 96.7858 428.391 98.0065 429.303 98.918C430.247 99.7969 431.288 100.415 432.428 100.773C433.6 101.132 434.804 101.311 436.041 101.311C439.882 101.311 442.926 100.578 445.172 99.1133C447.418 97.6159 449.029 95.6139 450.006 93.1074C451.015 90.5684 451.52 87.7526 451.52 84.6602ZM478.766 55.168L490.338 74.4062L502.057 55.168H512.652L495.367 81.2422L513.189 108H502.74L490.533 88.1758L478.326 108H467.828L485.602 81.2422L468.365 55.168H478.766Z" fill="white"/>
<path fill-rule="evenodd" clip-rule="evenodd" d="M130 84C130 106.091 112.091 124 90 124V114C106.569 114 120 100.569 120 84C120 67.4315 106.569 54 90 54V44C112.091 44 130 61.9086 130 84Z" fill="white"/>
<path fill-rule="evenodd" clip-rule="evenodd" d="M24 64C24 41.9086 41.9086 24 64 24V34C47.4315 34 34 47.4315 34 64C34 80.5685 47.4315 94 64 94V104C41.9086 104 24 86.0914 24 64Z" fill="white"/>
<path d="M67 94H77C82.5228 94 87 98.4772 87 104V124H77C71.4772 124 67 119.523 67 114V94Z" fill="white"/>
<path d="M67 24H77C82.5228 24 87 28.4772 87 34V54H77C71.4772 54 67 49.5228 67 44V24Z" fill="white"/>
</svg>
